# Blender v2.78 (sub 0) OBJ File: 'BlenderSave.blend'
# www.blender.org
mtllib Plane.mtl
o Plane
v -5.937476 -0.807418 5.937476
v 5.937476 -0.807418 5.937476
v -5.937476 -0.807418 -5.937476
v 5.937476 -0.807418 -5.937476
v -6.705965 -1.185806 6.705965
v 6.705965 -1.185806 6.705965
v -6.705965 -1.185806 -6.705965
v 6.705965 -1.185806 -6.705965
v -6.811186 -1.350199 6.811186
v 6.811186 -1.350199 6.811186
v -6.811186 -1.350199 -6.811186
v 6.811186 -1.350199 -6.811186
v -6.776626 -1.935904 6.776626
v 6.776626 -1.935904 6.776626
v -6.776626 -1.935904 -6.776626
v 6.776626 -1.935904 -6.776626
v -6.533167 -2.085417 6.533167
v 6.533167 -2.085417 6.533167
v -6.533167 -2.085417 -6.533167
v 6.533167 -2.085417 -6.533167
v -6.279920 -2.589174 6.279920
v -4.983628 -3.731236 4.983628
v 6.279920 -2.589174 6.279920
v 4.983628 -3.731236 4.983628
v -4.983628 -3.731236 -4.983628
v -6.279920 -2.589174 -6.279920
v 6.279920 -2.589174 -6.279920
v 4.983628 -3.731236 -4.983628
v -9.672522 -1.350198 -9.672522
v -9.672522 -1.350199 9.672522
v 9.672522 -1.350199 9.672522
v 9.672522 -1.350198 -9.672522
v -9.623444 -1.935904 -9.623444
v -9.623444 -1.935904 9.623444
v 9.623444 -1.935904 9.623444
v 9.623444 -1.935904 -9.623444
v 13.482794 -1.669473 9.672522
v 13.433716 -2.255178 9.623444
v 13.433716 -2.255178 -9.623444
v 13.482794 -1.669472 -9.672522
v -13.482794 -1.669472 -9.672522
v -13.433716 -2.255178 -9.623444
v -13.433716 -2.255178 9.623444
v -13.482794 -1.669473 9.672522
v 9.672522 -1.669472 -13.482794
v 9.623444 -2.255178 -13.433716
v -9.623444 -2.255178 -13.433716
v -9.672522 -1.669472 -13.482794
v -9.672522 -1.669473 13.482794
v -9.623444 -2.255178 13.433716
v 9.623444 -2.255178 13.433716
v 9.672522 -1.669473 13.482794
vt 1.2475 -0.5605
vt 1.2475 -1.4429
vt 2.4239 -1.4429
vt 2.4239 -0.5605
vt 2.1106 0.2450
vt 2.1248 0.2372
vt 2.1248 1.2494
vt 2.1106 1.2415
vt 2.5000 -1.5000
vt 2.5000 -0.5034
vt 1.1713 -0.5034
vt 1.1713 -1.5000
vt 0.5021 2.0054
vt 0.5021 0.9983
vt 0.7842 0.7868
vt 0.7842 2.2169
vt 2.1390 0.2450
vt 2.1532 0.2372
vt 2.1532 1.2494
vt 2.1390 1.2415
vt 2.0964 0.2450
vt 2.1106 0.2372
vt 2.1106 1.2494
vt 2.0964 1.2415
vt 2.1248 0.2450
vt 2.1390 0.2372
vt 2.1390 1.2494
vt 2.1248 1.2415
vt -0.8405 0.9983
vt -0.8164 1.0164
vt -0.8164 1.9873
vt -0.8405 2.0054
vt -0.8391 0.0079
vt 0.5104 0.0079
vt 0.7939 0.2205
vt -1.1225 0.2205
vt -1.1225 2.2169
vt -1.1225 0.7868
vt 0.5104 -1.0043
vt -0.8391 -1.0043
vt -1.1225 -1.2169
vt 0.7939 -1.2169
vt 1.7343 1.2080
vt 1.6807 1.1892
vt 1.6807 0.2560
vt 1.7343 0.2372
vt 0.4780 1.9873
vt 0.4780 1.0164
vt 1.3590 1.2080
vt 1.3054 1.1892
vt 1.3054 0.2560
vt 1.3590 0.2372
vt 1.9219 1.2080
vt 1.8684 1.1892
vt 1.8684 0.2560
vt 1.9219 0.2372
vt 1.1713 0.2372
vt 1.1713 -0.5034
vt 2.1588 -0.5034
vt 2.1588 0.2372
vt 1.4931 1.1892
vt 1.3590 1.0929
vt 1.3590 0.3523
vt 1.4931 0.2560
vt 1.1713 1.0929
vt 1.1713 0.3523
vt 1.5466 1.0929
vt 1.5466 0.3523
vt 1.7343 1.0929
vt 1.7343 0.3523
vt 1.5466 1.2080
vt 1.5466 0.2372
vt 2.3327 0.9340
vt 2.2747 0.9303
vt 2.2747 -0.4998
vt 2.3327 -0.5034
vt 2.0383 0.2372
vt 2.0383 0.5212
vt 1.9801 0.5213
vt 1.9801 0.2372
vt -1.1225 0.5036
vt 0.7842 0.5036
vt 2.0964 0.5214
vt 2.0964 0.8054
vt 2.0383 0.8054
vt 2.0383 0.5213
vt -1.1225 -1.5000
vt 0.7939 -1.5000
vt 2.3906 0.9340
vt 2.3327 0.9303
vt 2.3327 -0.4998
vt 2.3906 -0.5034
vt 2.0383 0.5213
vt 2.0383 0.2372
vt 2.0964 0.2372
vt 2.0964 0.5212
vt 0.7842 2.5000
vt -1.1225 2.5000
vt 1.9219 1.0895
vt 1.9219 0.8054
vt 1.9801 0.8055
vt 1.9801 1.0896
vt 0.7939 0.5036
vt -1.1225 0.5036
vt 2.1588 -0.5034
vt 2.2167 -0.4998
vt 2.2167 0.9303
vt 2.1588 0.9340
vt 1.9801 1.0896
vt 1.9801 0.8055
vt 2.0383 0.8054
vt 2.0383 1.0895
vt -1.5000 2.2169
vt -1.5000 0.7868
vt 1.9219 0.5212
vt 1.9219 0.2372
vt 1.9801 0.2372
vt 1.9801 0.5213
vt 1.1713 -1.2169
vt 1.1713 0.2205
vt 2.2167 -0.5034
vt 2.2747 -0.4998
vt 2.2747 0.9303
vt 2.2167 0.9340
vt 1.9801 0.5213
vt 1.9801 0.8054
vt 1.9219 0.8054
vt 1.9219 0.5214
vt 1.1616 0.7868
vt 1.1616 2.2169
vt 2.0383 0.5214
vt 2.0383 0.8054
vt 1.9801 0.8054
vt 1.9801 0.5213
vt -1.5000 0.2205
vt -1.5000 -1.2169
vn 0.0000 1.0000 0.0000
vn 0.0000 0.5391 -0.8422
vn 0.0000 0.8971 -0.4417
vn 0.0000 0.8971 0.4417
vn 0.4417 0.8971 0.0000
vn -0.4417 0.8971 0.0000
vn 0.0000 -1.0000 -0.0000
vn 0.0000 0.5391 0.8422
vn 0.8422 0.5391 0.0000
vn -0.8422 0.5391 0.0000
vn 0.0000 -0.8521 -0.5233
vn 0.8935 -0.4492 0.0000
vn 0.0000 -0.8521 0.5233
vn 0.5233 -0.8521 0.0000
vn -0.5233 -0.8521 0.0000
vn 0.0000 -0.4492 0.8935
vn 0.0000 -0.4492 -0.8935
vn -0.6611 -0.7503 0.0000
vn 0.0000 -0.7503 0.6611
vn 0.6611 -0.7503 0.0000
vn 0.0000 -0.7503 -0.6611
vn -0.8935 -0.4492 0.0000
vn 0.9965 -0.0835 -0.0000
vn -0.0069 -0.0829 0.9965
vn -0.0835 -0.9965 -0.0000
vn -0.0069 -0.0829 -0.9965
vn 0.0835 0.9965 0.0000
vn -0.9965 -0.0835 -0.0000
vn 0.0069 -0.0829 -0.9965
vn 0.0835 -0.9965 -0.0000
vn 0.0069 -0.0829 0.9965
vn -0.0835 0.9965 0.0000
vn 0.0000 -0.0835 -0.9965
vn 0.9965 -0.0829 0.0069
vn 0.0000 -0.9965 0.0835
vn -0.9965 -0.0829 0.0069
vn 0.0000 0.9965 -0.0835
vn 0.0000 -0.0835 0.9965
vn -0.9965 -0.0829 -0.0069
vn 0.0000 -0.9965 -0.0835
vn 0.9965 -0.0829 -0.0069
vn 0.0000 0.9965 0.0835
usemtl None
s off
f 1/1/1 2/2/1 4/3/1 3/4/1
f 8/5/2 12/6/2 11/7/2 7/8/2
f 4/3/3 8/9/3 7/10/3 3/4/3
f 1/1/4 5/11/4 6/12/4 2/2/4
f 2/2/5 6/12/5 8/9/5 4/3/5
f 3/4/6 7/10/6 5/11/6 1/1/6
f 13/13/7 14/14/7 35/15/7 34/16/7
f 5/17/8 9/18/8 10/19/8 6/20/8
f 6/21/9 10/22/9 12/23/9 8/24/9
f 7/25/10 11/26/10 9/27/10 5/28/10
f 16/29/11 20/30/11 19/31/11 15/32/11
f 9/33/1 11/34/1 29/35/1 30/36/1
f 16/29/7 15/32/7 33/37/7 36/38/7
f 12/39/1 10/40/1 31/41/1 32/42/1
f 18/43/12 23/44/12 27/45/12 20/46/12
f 13/13/13 17/47/13 18/48/13 14/14/13
f 14/14/14 18/48/14 20/30/14 16/29/14
f 15/32/15 19/31/15 17/47/15 13/13/15
f 17/49/16 21/50/16 23/51/16 18/52/16
f 20/53/17 27/54/17 26/55/17 19/56/17
f 22/57/7 25/58/7 28/59/7 24/60/7
f 26/61/18 25/62/18 22/63/18 21/64/18
f 21/50/19 22/65/19 24/66/19 23/51/19
f 23/44/20 24/67/20 28/68/20 27/45/20
f 27/54/21 28/69/21 25/70/21 26/55/21
f 19/71/22 26/61/22 21/64/22 17/72/22
f 11/34/1 12/39/1 32/42/1 29/35/1
f 10/40/1 9/33/1 30/36/1 31/41/1
f 14/14/7 16/29/7 36/38/7 35/15/7
f 15/32/7 13/13/7 34/16/7 33/37/7
f 37/73/23 38/74/23 39/75/23 40/76/23
f 35/77/24 38/78/24 37/79/24 31/80/24
f 36/38/25 39/81/25 38/82/25 35/15/25
f 32/83/26 40/84/26 39/85/26 36/86/26
f 31/41/27 37/87/27 40/88/27 32/42/27
f 41/89/28 42/90/28 43/91/28 44/92/28
f 33/93/29 42/94/29 41/95/29 29/96/29
f 34/16/30 43/97/30 42/98/30 33/37/30
f 30/99/31 44/100/31 43/101/31 34/102/31
f 29/35/32 41/103/32 44/104/32 30/36/32
f 45/105/33 46/106/33 47/107/33 48/108/33
f 36/109/34 46/110/34 45/111/34 32/112/34
f 33/37/35 47/113/35 46/114/35 36/38/35
f 29/115/36 48/116/36 47/117/36 33/118/36
f 32/42/37 45/119/37 48/120/37 29/35/37
f 49/121/38 50/122/38 51/123/38 52/124/38
f 34/125/39 50/126/39 49/127/39 30/128/39
f 35/15/40 51/129/40 50/130/40 34/16/40
f 31/131/41 52/132/41 51/133/41 35/134/41
f 30/36/42 49/135/42 52/136/42 31/41/42
