{
    "accessors" : [
        {
            "bufferView" : 0, 
            "componentType" : 5123, 
            "count" : 576, 
            "max" : [
                381
            ], 
            "min" : [
                0
            ], 
            "type" : "SCALAR"
        }, 
        {
            "bufferView" : 1, 
            "componentType" : 5126, 
            "count" : 382, 
            "max" : [
                4.000001907348633, 
                8.940696716308594e-08, 
                4.000002384185791
            ], 
            "min" : [
                -4.000001430511475, 
                -0.8000000715255737, 
                -4.000001430511475
            ], 
            "type" : "VEC3"
        }, 
        {
            "bufferView" : 2, 
            "componentType" : 5126, 
            "count" : 382, 
            "max" : [
                1.0, 
                1.0, 
                1.0
            ], 
            "min" : [
                -1.0, 
                -1.0, 
                -1.0
            ], 
            "type" : "VEC3"
        }, 
        {
            "bufferView" : 3, 
            "componentType" : 5126, 
            "count" : 382, 
            "max" : [
                2.9802313292748295e-06, 
                1.852885379912349e-21, 
                1.0, 
                1.0
            ], 
            "min" : [
                -2.384186245762976e-06, 
                -1.0, 
                -4.768371127283899e-06, 
                1.0
            ], 
            "type" : "VEC4"
        }, 
        {
            "bufferView" : 4, 
            "componentType" : 5126, 
            "count" : 382, 
            "max" : [
                4.5, 
                4.500000953674316
            ], 
            "min" : [
                -3.5, 
                -3.5000009536743164
            ], 
            "type" : "VEC2"
        }, 
        {
            "bufferView" : 5, 
            "componentType" : 5123, 
            "count" : 2880, 
            "max" : [
                543
            ], 
            "min" : [
                0
            ], 
            "type" : "SCALAR"
        }, 
        {
            "bufferView" : 6, 
            "componentType" : 5126, 
            "count" : 544, 
            "max" : [
                1.000000238418579, 
                2.6819050312042236, 
                -3.683596611022949
            ], 
            "min" : [
                -0.9999998211860657, 
                0.6819050312042236, 
                -5.683596134185791
            ], 
            "type" : "VEC3"
        }, 
        {
            "bufferView" : 7, 
            "componentType" : 5126, 
            "count" : 544, 
            "max" : [
                1.0, 
                1.0, 
                0.999969482421875
            ], 
            "min" : [
                -1.0, 
                -0.999969482421875, 
                -1.0
            ], 
            "type" : "VEC3"
        }, 
        {
            "bufferView" : 8, 
            "componentType" : 5126, 
            "count" : 544, 
            "max" : [
                1.0, 
                0.0491241030395031, 
                1.0, 
                1.0
            ], 
            "min" : [
                -1.0, 
                -0.049123890697956085, 
                -1.0, 
                1.0
            ], 
            "type" : "VEC4"
        }, 
        {
            "bufferView" : 9, 
            "componentType" : 5126, 
            "count" : 544, 
            "max" : [
                1.46875, 
                1.074999988079071
            ], 
            "min" : [
                0.0, 
                -0.07500004768371582
            ], 
            "type" : "VEC2"
        }, 
        {
            "bufferView" : 10, 
            "componentType" : 5123, 
            "count" : 2880, 
            "max" : [
                543
            ], 
            "min" : [
                0
            ], 
            "type" : "SCALAR"
        }, 
        {
            "bufferView" : 11, 
            "componentType" : 5126, 
            "count" : 544, 
            "max" : [
                1.000000238418579, 
                6.000000476837158, 
                1.0000001192092896
            ], 
            "min" : [
                -0.9999998211860657, 
                4.000000476837158, 
                -0.999999463558197
            ], 
            "type" : "VEC3"
        }, 
        {
            "bufferView" : 12, 
            "componentType" : 5126, 
            "count" : 544, 
            "max" : [
                1.0, 
                1.0, 
                1.0
            ], 
            "min" : [
                -1.0, 
                -0.999969482421875, 
                -1.0
            ], 
            "type" : "VEC3"
        }, 
        {
            "bufferView" : 13, 
            "componentType" : 5126, 
            "count" : 544, 
            "max" : [
                1.0, 
                0.0491240993142128, 
                1.0, 
                1.0
            ], 
            "min" : [
                -1.0, 
                -0.04912388697266579, 
                -1.0, 
                1.0
            ], 
            "type" : "VEC4"
        }, 
        {
            "bufferView" : 14, 
            "componentType" : 5126, 
            "count" : 544, 
            "max" : [
                1.46875, 
                1.074999988079071
            ], 
            "min" : [
                0.0, 
                -0.07500004768371582
            ], 
            "type" : "VEC2"
        }, 
        {
            "bufferView" : 15, 
            "componentType" : 5123, 
            "count" : 3456, 
            "max" : [
                2303
            ], 
            "min" : [
                0
            ], 
            "type" : "SCALAR"
        }, 
        {
            "bufferView" : 16, 
            "componentType" : 5126, 
            "count" : 2304, 
            "max" : [
                1.25, 
                0.9497902393341064, 
                5.675848960876465
            ], 
            "min" : [
                -1.25, 
                0.44979023933410645, 
                3.175848960876465
            ], 
            "type" : "VEC3"
        }, 
        {
            "bufferView" : 17, 
            "componentType" : 5126, 
            "count" : 2304, 
            "max" : [
                0.9639958739280701, 
                0.9657869935035706, 
                0.963996171951294
            ], 
            "min" : [
                -0.9639959931373596, 
                -0.9657869935035706, 
                -0.963996171951294
            ], 
            "type" : "VEC3"
        }, 
        {
            "bufferView" : 18, 
            "componentType" : 5126, 
            "count" : 2304, 
            "max" : [
                0.9978590607643127, 
                4.215703768295498e-07, 
                0.997859001159668, 
                1.0
            ], 
            "min" : [
                -0.997859001159668, 
                -6.507967214020027e-07, 
                -0.997859001159668, 
                1.0
            ], 
            "type" : "VEC4"
        }, 
        {
            "bufferView" : 19, 
            "componentType" : 5126, 
            "count" : 2304, 
            "max" : [
                1.0, 
                1.0
            ], 
            "min" : [
                0.0, 
                0.0
            ], 
            "type" : "VEC2"
        }
    ], 
    "asset" : {
        "generator" : "Khronos Blender glTF 2.0 exporter", 
        "version" : "2.0"
    }, 
    "bufferViews" : [
        {
            "buffer" : 0, 
            "byteLength" : 1152, 
            "byteOffset" : 0, 
            "target" : 34963
        }, 
        {
            "buffer" : 0, 
            "byteLength" : 4584, 
            "byteOffset" : 1152, 
            "target" : 34962
        }, 
        {
            "buffer" : 0, 
            "byteLength" : 4584, 
            "byteOffset" : 5736, 
            "target" : 34962
        }, 
        {
            "buffer" : 0, 
            "byteLength" : 6112, 
            "byteOffset" : 10320, 
            "target" : 34962
        }, 
        {
            "buffer" : 0, 
            "byteLength" : 3056, 
            "byteOffset" : 16432, 
            "target" : 34962
        }, 
        {
            "buffer" : 0, 
            "byteLength" : 5760, 
            "byteOffset" : 19488, 
            "target" : 34963
        }, 
        {
            "buffer" : 0, 
            "byteLength" : 6528, 
            "byteOffset" : 25248, 
            "target" : 34962
        }, 
        {
            "buffer" : 0, 
            "byteLength" : 6528, 
            "byteOffset" : 31776, 
            "target" : 34962
        }, 
        {
            "buffer" : 0, 
            "byteLength" : 8704, 
            "byteOffset" : 38304, 
            "target" : 34962
        }, 
        {
            "buffer" : 0, 
            "byteLength" : 4352, 
            "byteOffset" : 47008, 
            "target" : 34962
        }, 
        {
            "buffer" : 0, 
            "byteLength" : 5760, 
            "byteOffset" : 51360, 
            "target" : 34963
        }, 
        {
            "buffer" : 0, 
            "byteLength" : 6528, 
            "byteOffset" : 57120, 
            "target" : 34962
        }, 
        {
            "buffer" : 0, 
            "byteLength" : 6528, 
            "byteOffset" : 63648, 
            "target" : 34962
        }, 
        {
            "buffer" : 0, 
            "byteLength" : 8704, 
            "byteOffset" : 70176, 
            "target" : 34962
        }, 
        {
            "buffer" : 0, 
            "byteLength" : 4352, 
            "byteOffset" : 78880, 
            "target" : 34962
        }, 
        {
            "buffer" : 0, 
            "byteLength" : 6912, 
            "byteOffset" : 83232, 
            "target" : 34963
        }, 
        {
            "buffer" : 0, 
            "byteLength" : 27648, 
            "byteOffset" : 90144, 
            "target" : 34962
        }, 
        {
            "buffer" : 0, 
            "byteLength" : 27648, 
            "byteOffset" : 117792, 
            "target" : 34962
        }, 
        {
            "buffer" : 0, 
            "byteLength" : 36864, 
            "byteOffset" : 145440, 
            "target" : 34962
        }, 
        {
            "buffer" : 0, 
            "byteLength" : 18432, 
            "byteOffset" : 182304, 
            "target" : 34962
        }
    ], 
    "buffers" : [
        {
            "byteLength" : 200736, 
            "uri" : "TestScene.bin"
        }
    ], 
    "cameras" : [
        {
            "name" : "Camera", 
            "perspective" : {
                "aspectRatio" : 1.7777777777777777, 
                "yfov" : 0.5033799372418416, 
                "zfar" : 100.0, 
                "znear" : 0.10000000149011612
            }, 
            "type" : "perspective"
        }
    ], 
    "images" : [
        {
            "uri" : "RoughRedBrickWall_Diff.png"
        }, 
        {
            "uri" : "RoughRedBrickWall_MetallicRoughness.png"
        }, 
        {
            "uri" : "RoughRedBrickWall_AO.png"
        }, 
        {
            "uri" : "RoughRedBrickWall_Nrm.png"
        }
    ], 
    "materials" : [
        {
            "doubleSided" : true, 
            "name" : "Material", 
            "normalTexture" : {
                "index" : 3
            }, 
            "occlusionTexture" : {
                "index" : 2
            }, 
            "pbrMetallicRoughness" : {
                "baseColorTexture" : {
                    "index" : 0
                }, 
                "metallicRoughnessTexture" : {
                    "index" : 1
                }, 
                "roughnessFactor" : 0.06454545259475708
            }
        }, 
        {
            "name" : "Material.001", 
            "pbrMetallicRoughness" : {
                "metallicFactor" : 0.0, 
                "roughnessFactor" : 0.4545454680919647
            }
        }, 
        {
            "name" : "Material.002", 
            "pbrMetallicRoughness" : {
                "metallicFactor" : 0.0, 
                "roughnessFactor" : 0.0
            }
        }
    ], 
    "meshes" : [
        {
            "name" : "Cube", 
            "primitives" : [
                {
                    "attributes" : {
                        "NORMAL" : 2, 
                        "POSITION" : 1, 
                        "TANGENT" : 3, 
                        "TEXCOORD_0" : 4
                    }, 
                    "indices" : 0, 
                    "material" : 0
                }
            ]
        }, 
        {
            "name" : "Sphere", 
            "primitives" : [
                {
                    "attributes" : {
                        "NORMAL" : 7, 
                        "POSITION" : 6, 
                        "TANGENT" : 8, 
                        "TEXCOORD_0" : 9
                    }, 
                    "indices" : 5, 
                    "material" : 1
                }
            ]
        }, 
        {
            "name" : "Sphere.001", 
            "primitives" : [
                {
                    "attributes" : {
                        "NORMAL" : 12, 
                        "POSITION" : 11, 
                        "TANGENT" : 13, 
                        "TEXCOORD_0" : 14
                    }, 
                    "indices" : 10, 
                    "material" : 0
                }
            ]
        }, 
        {
            "name" : "Torus", 
            "primitives" : [
                {
                    "attributes" : {
                        "NORMAL" : 17, 
                        "POSITION" : 16, 
                        "TANGENT" : 18, 
                        "TEXCOORD_0" : 19
                    }, 
                    "indices" : 15, 
                    "material" : 2
                }
            ]
        }
    ], 
    "nodes" : [
        {
            "camera" : 0, 
            "name" : "Correction_Camera", 
            "rotation" : [
                -0.7071067690849304, 
                -0.0, 
                0.0, 
                0.7071067690849304
            ]
        }, 
        {
            "children" : [
                0
            ], 
            "name" : "Camera", 
            "rotation" : [
                0.483536034822464, 
                0.33687159419059753, 
                -0.20870360732078552, 
                0.7804827094078064
            ], 
            "translation" : [
                7.481131553649902, 
                5.34366512298584, 
                6.5076398849487305
            ]
        }, 
        {
            "mesh" : 0, 
            "name" : "Cube"
        }, 
        {
            "name" : "Lamp", 
            "rotation" : [
                0.16907575726509094, 
                0.7558802962303162, 
                -0.27217137813568115, 
                0.570947527885437
            ], 
            "scale" : [
                1.0, 
                1.0, 
                0.9999999403953552
            ], 
            "translation" : [
                4.076245307922363, 
                5.903861999511719, 
                -1.0054539442062378
            ]
        }, 
        {
            "mesh" : 1, 
            "name" : "Sphere"
        }, 
        {
            "mesh" : 2, 
            "name" : "Sphere.001"
        }, 
        {
            "name" : "Sun", 
            "rotation" : [
                -0.25819408893585205, 
                -0.06838362663984299, 
                -0.19874730706214905, 
                0.9429522752761841
            ], 
            "translation" : [
                0.0, 
                2.416928768157959, 
                -0.0
            ]
        }, 
        {
            "mesh" : 3, 
            "name" : "Torus", 
            "translation" : [
                0.0, 
                5.960464477539063e-08, 
                -0.0
            ]
        }
    ], 
    "samplers" : [
        {}
    ], 
    "scene" : 0, 
    "scenes" : [
        {
            "name" : "Scene", 
            "nodes" : [
                5, 
                7, 
                4, 
                6, 
                2, 
                3, 
                1
            ]
        }
    ], 
    "textures" : [
        {
            "sampler" : 0, 
            "source" : 0
        }, 
        {
            "sampler" : 0, 
            "source" : 1
        }, 
        {
            "sampler" : 0, 
            "source" : 2
        }, 
        {
            "sampler" : 0, 
            "source" : 3
        }
    ]
}
